<svg width="48" height="48" viewBox="0 0 48 48" fill="none" xmlns="http://www.w3.org/2000/svg">
<rect width="48" height="48" rx="24" fill="#4E888F"/>
<path d="M24.0001 26C26.2061 26 28.0001 24.206 28.0001 22C28.0001 19.794 26.2061 18 24.0001 18C21.7941 18 20.0001 19.794 20.0001 22C20.0001 24.206 21.7941 26 24.0001 26ZM24.0001 20C25.1031 20 26.0001 20.897 26.0001 22C26.0001 23.103 25.1031 24 24.0001 24C22.8971 24 22.0001 23.103 22.0001 22C22.0001 20.897 22.8971 20 24.0001 20Z" fill="white"/>
<path d="M23.4201 33.814C23.5893 33.9349 23.7921 33.9998 24.0001 33.9998C24.2081 33.9998 24.4108 33.9349 24.5801 33.814C24.8841 33.599 32.0291 28.44 32.0001 22C32.0001 17.589 28.4111 14 24.0001 14C19.5891 14 16.0001 17.589 16.0001 21.995C15.9711 28.44 23.1161 33.599 23.4201 33.814ZM24.0001 16C27.3091 16 30.0001 18.691 30.0001 22.005C30.0211 26.443 25.6121 30.428 24.0001 31.735C22.3891 30.427 17.9791 26.441 18.0001 22C18.0001 18.691 20.6911 16 24.0001 16Z" fill="white"/>
</svg>
