<svg width="48" height="48" viewBox="0 0 48 48" fill="none" xmlns="http://www.w3.org/2000/svg">
<rect width="48" height="48" rx="24" fill="#4E888F"/>
<path d="M29.7073 24.2932C29.6145 24.2003 29.5043 24.1265 29.383 24.0762C29.2617 24.0259 29.1317 24 29.0003 24C28.869 24 28.739 24.0259 28.6176 24.0762C28.4963 24.1265 28.3861 24.2003 28.2933 24.2932L26.6993 25.8872C25.9603 25.6672 24.5813 25.1672 23.7073 24.2932C22.8333 23.4192 22.3333 22.0402 22.1133 21.3012L23.7073 19.7072C23.8003 19.6144 23.874 19.5042 23.9243 19.3829C23.9746 19.2616 24.0005 19.1315 24.0005 19.0002C24.0005 18.8689 23.9746 18.7388 23.9243 18.6175C23.874 18.4962 23.8003 18.386 23.7073 18.2932L19.7073 14.2932C19.6145 14.2003 19.5043 14.1265 19.383 14.0762C19.2617 14.0259 19.1317 14 19.0003 14C18.869 14 18.739 14.0259 18.6176 14.0762C18.4963 14.1265 18.3861 14.2003 18.2933 14.2932L15.5813 17.0052C15.2013 17.3852 14.9873 17.9072 14.9953 18.4402C15.0183 19.8642 15.3953 24.8102 19.2933 28.7082C23.1913 32.6062 28.1373 32.9822 29.5623 33.0062H29.5903C30.1183 33.0062 30.6173 32.7982 30.9953 32.4202L33.7073 29.7082C33.8003 29.6154 33.874 29.5052 33.9243 29.3839C33.9746 29.2626 34.0005 29.1325 34.0005 29.0012C34.0005 28.8699 33.9746 28.7398 33.9243 28.6185C33.874 28.4972 33.8003 28.387 33.7073 28.2942L29.7073 24.2932ZM29.5803 31.0052C28.3323 30.9842 24.0623 30.6492 20.7073 27.2932C17.3413 23.9272 17.0153 19.6422 16.9953 18.4192L19.0003 16.4142L21.5863 19.0002L20.2933 20.2932C20.1758 20.4107 20.0894 20.5555 20.0419 20.7148C19.9944 20.874 19.9873 21.0426 20.0213 21.2052C20.0453 21.3202 20.6323 24.0472 22.2923 25.7072C23.9523 27.3672 26.6793 27.9542 26.7943 27.9782C26.9569 28.0132 27.1256 28.0067 27.285 27.9593C27.4444 27.9119 27.5893 27.8252 27.7063 27.7072L29.0003 26.4142L31.5863 29.0002L29.5803 31.0052Z" fill="white"/>
</svg>
